<svg width="72" height="72" viewBox="0 0 72 72" fill="none" xmlns="http://www.w3.org/2000/svg">
<path d="M22.9373 18.2057L40.5258 19.8514L48.8573 26.8457V52.56L35.7944 52.0457L22.9373 52.8685V18.2057Z" fill="#F3EEE7"/>
<path d="M22.5017 34.4937V50.7117C22.5017 52.2875 23.9776 53.4471 25.5087 53.0743L29.623 52.2514L32.6058 52.0457H35.6916H38.4687L41.0401 52.2514L43.4058 52.56L46.0801 53.0743C47.7254 53.4493 49.2928 52.199 49.2928 50.5115V34.4937" stroke="#7A2D2A" stroke-width="1.39175" stroke-linecap="round"/>
<path d="M21.6613 20.8768C21.6393 18.6168 23.6678 16.912 25.8625 17.2801L26.0754 17.3221L26.0812 17.3231L28.2414 17.8377H28.2404L30.051 18.2391L31.5305 18.4374L33.7482 18.5389H40.7746L42.4416 19.9305H33.7219L33.7062 19.9295L31.4435 19.827L31.4133 19.826L31.383 19.8211L29.84 19.6161L29.8097 19.6122L29.7814 19.6053L27.9299 19.1942L27.9191 19.1913L25.759 18.6776V18.6766C24.3637 18.3621 23.039 19.4318 23.0529 20.8631L23.1974 35.6493C23.2008 36.0331 22.8928 36.3474 22.509 36.3514C22.1249 36.3552 21.81 36.0469 21.8058 35.6629L21.6613 20.8768ZM49.9894 26.2303V35.6561C49.989 36.0399 49.677 36.3512 49.2931 36.3514C48.9091 36.3514 48.5973 36.0401 48.5969 35.6561V25.0682L49.9894 26.2303Z" fill="#7A2D2A"/>
<mask id="path-4-inside-1_51_680" fill="white">
<path d="M49.9888 26.2095V27.2329H43.8999C41.9783 27.2329 40.4204 25.675 40.4204 23.7534V19.2466H41.646L49.9888 26.2095Z"/>
</mask>
<path d="M49.9888 26.2095V27.2329H43.8999C41.9783 27.2329 40.4204 25.675 40.4204 23.7534V19.2466H41.646L49.9888 26.2095Z" fill="#8D7D6E"/>
<path d="M49.9888 26.2095H51.3805V25.5582L50.8805 25.141L49.9888 26.2095ZM49.9888 27.2329V28.6247H51.3805V27.2329H49.9888ZM40.4204 19.2466V17.8548H39.0287V19.2466H40.4204ZM41.646 19.2466L42.5378 18.1781L42.1505 17.8548H41.646V19.2466ZM49.9888 26.2095H48.597V27.2329H49.9888H51.3805V26.2095H49.9888ZM49.9888 27.2329V25.8412H43.8999V27.2329V28.6247H49.9888V27.2329ZM43.8999 27.2329V25.8412C42.7469 25.8412 41.8122 24.9064 41.8122 23.7534H40.4204H39.0287C39.0287 26.4437 41.2097 28.6247 43.8999 28.6247V27.2329ZM40.4204 23.7534H41.8122V19.2466H40.4204H39.0287V23.7534H40.4204ZM40.4204 19.2466V20.6383H41.646V19.2466V17.8548H40.4204V19.2466ZM41.646 19.2466L40.7542 20.3151L49.097 27.278L49.9888 26.2095L50.8805 25.141L42.5378 18.1781L41.646 19.2466Z" fill="#7A2D2A" mask="url(#path-4-inside-1_51_680)"/>
<path d="M17.8971 60.0686C32.693 54.374 40.4758 54.8039 53.6913 60.2743" stroke="#7A2D2A" stroke-width="1.64571" stroke-linecap="round"/>
<path d="M17.8971 11.52C33.0037 16.8018 40.8095 16.4178 53.8971 11.52" stroke="#7A2D2A" stroke-width="1.64571" stroke-linecap="round"/>
</svg>
