<svg width="350" height="350" viewBox="0 0 350 350" fill="none" xmlns="http://www.w3.org/2000/svg">
<rect x="121" y="192.309" width="128" height="106" rx="16" fill="#E7DCCA" stroke="#7A2D2A" stroke-width="8"/>
<rect x="87" y="71.3086" width="128" height="123" rx="16" fill="#E7DCCA" stroke="#7A2D2A" stroke-width="8"/>
<rect x="141" y="172.309" width="126" height="106" rx="18" fill="#F3EEE7"/>
<path d="M105 69.4838C105 59.0955 113.769 50.8636 124.137 51.5198L177.61 54.9041C181.743 55.1657 185.66 56.8447 188.699 59.6579L225.227 93.4651C228.907 96.8718 231 101.66 231 106.675V172.309H123C113.059 172.309 105 164.25 105 154.309V69.4838Z" fill="#F3EEE7"/>
<path d="M228 172.309H253C260.732 172.309 267 178.577 267 186.309V262.309C267 271.145 259.837 278.309 251 278.309H156.5C147.94 278.309 141 271.369 141 262.809V188.309C141 179.472 148.163 172.309 157 172.309H179.5" stroke="#7A2D2A" stroke-width="8" stroke-linecap="round"/>
<mask id="path-6-inside-1_48_155" fill="white">
<path d="M199.816 56H120.5C113.991 56.0002 108.713 61.2777 108.713 67.7871V158.028C108.713 163.709 113.319 168.314 119 168.314H179.5C181.709 168.315 183.5 170.106 183.5 172.314C183.5 174.523 181.709 176.314 179.5 176.314H119C108.901 176.314 100.713 168.128 100.713 158.028V67.7871C100.713 56.8594 109.572 48.0002 120.5 48H191.716L199.816 56ZM235.224 90.9678V176.314H228C225.791 176.314 224 174.523 224 172.314C224 170.371 225.386 168.752 227.224 168.391V83.0674L235.224 90.9678Z"/>
</mask>
<path d="M199.816 56H120.5C113.991 56.0002 108.713 61.2777 108.713 67.7871V158.028C108.713 163.709 113.319 168.314 119 168.314H179.5C181.709 168.315 183.5 170.106 183.5 172.314C183.5 174.523 181.709 176.314 179.5 176.314H119C108.901 176.314 100.713 168.128 100.713 158.028V67.7871C100.713 56.8594 109.572 48.0002 120.5 48H191.716L199.816 56ZM235.224 90.9678V176.314H228C225.791 176.314 224 174.523 224 172.314C224 170.371 225.386 168.752 227.224 168.391V83.0674L235.224 90.9678Z" fill="#F3EEE7"/>
<path d="M199.816 56V64H219.302L205.438 50.3079L199.816 56ZM120.5 56V48L120.5 48L120.5 56ZM108.713 67.7871L100.713 67.7869V67.7871H108.713ZM108.713 158.028H100.713L100.713 158.028L108.713 158.028ZM119 168.314L119 176.314H119V168.314ZM179.5 168.314L179.501 160.314H179.5V168.314ZM183.5 172.314H191.5V172.313L183.5 172.314ZM179.5 176.314V184.314H179.501L179.5 176.314ZM119 176.314L119 184.314H119V176.314ZM100.713 158.028H92.7129V158.028L100.713 158.028ZM100.713 67.7871L92.7129 67.787V67.7871H100.713ZM120.5 48V40H120.5L120.5 48ZM191.716 48L197.337 42.3079L195 40H191.716V48ZM235.224 90.9678H243.224V87.6247L240.845 85.2756L235.224 90.9678ZM235.224 176.314V184.314H243.224V176.314H235.224ZM228 176.314L227.999 184.314H228V176.314ZM224 172.314L216 172.313V172.314H224ZM227.224 168.391L228.768 176.24L235.224 174.97V168.391H227.224ZM227.224 83.0674L232.845 77.3752L219.224 63.9235V83.0674H227.224ZM199.816 56V48H120.5V56V64H199.816V56ZM120.5 56L120.5 48C109.572 48.0003 100.713 56.8593 100.713 67.7869L108.713 67.7871L116.713 67.7873C116.713 65.696 118.409 64.0001 120.5 64L120.5 56ZM108.713 67.7871H100.713V158.028H108.713H116.713V67.7871H108.713ZM108.713 158.028L100.713 158.028C100.713 168.129 108.902 176.314 119 176.314L119 168.314L119 160.314C117.736 160.314 116.713 159.29 116.713 158.028L108.713 158.028ZM119 168.314V176.314H179.5V168.314V160.314H119V168.314ZM179.5 168.314L179.499 176.314C177.29 176.314 175.5 174.524 175.5 172.316L183.5 172.314L191.5 172.313C191.499 165.688 186.128 160.315 179.501 160.314L179.5 168.314ZM183.5 172.314H175.5C175.5 170.105 177.291 168.315 179.499 168.314L179.5 176.314L179.501 184.314C186.127 184.314 191.5 178.942 191.5 172.314H183.5ZM179.5 176.314V168.314H119V176.314V184.314H179.5V176.314ZM119 176.314L119 168.314C113.318 168.314 108.713 163.709 108.713 158.028L100.713 158.028L92.7129 158.028C92.7131 172.547 104.483 184.314 119 184.314L119 176.314ZM100.713 158.028H108.713V67.7871H100.713H92.7129V158.028H100.713ZM100.713 67.7871L108.713 67.7872C108.713 61.2777 113.991 56.0001 120.5 56L120.5 48L120.5 40C105.154 40.0002 92.7131 52.4411 92.7129 67.787L100.713 67.7871ZM120.5 48V56H191.716V48V40H120.5V48ZM191.716 48L186.094 53.6921L194.195 61.6921L199.816 56L205.438 50.3079L197.337 42.3079L191.716 48ZM235.224 90.9678H227.224V176.314H235.224H243.224V90.9678H235.224ZM235.224 176.314V168.314H228V176.314V184.314H235.224V176.314ZM228 176.314L228.001 168.314C230.209 168.315 232 170.105 232 172.314H224H216C216 178.942 221.373 184.314 227.999 184.314L228 176.314ZM224 172.314L232 172.316C232 174.269 230.608 175.878 228.768 176.24L227.224 168.391L225.68 160.541C220.164 161.626 216.001 166.474 216 172.313L224 172.314ZM227.224 168.391H235.224V83.0674H227.224H219.224V168.391H227.224ZM227.224 83.0674L221.602 88.7596L229.602 96.66L235.224 90.9678L240.845 85.2756L232.845 77.3752L227.224 83.0674Z" fill="#7A2D2A" mask="url(#path-6-inside-1_48_155)"/>
<mask id="path-8-inside-2_48_155" fill="white">
<path d="M235 90.2451V99.3086H204C192.954 99.3086 184 90.3543 184 79.3086V48.3086H192.257L235 90.2451Z"/>
</mask>
<path d="M235 90.2451V99.3086H204C192.954 99.3086 184 90.3543 184 79.3086V48.3086H192.257L235 90.2451Z" fill="#8D7D6E"/>
<path d="M235 90.2451H243V86.8867L240.603 84.5346L235 90.2451ZM235 99.3086V107.309H243V99.3086H235ZM204 99.3086V107.309V107.309V99.3086ZM184 79.3086H176V79.3086H184ZM184 48.3086V40.3086H176V48.3086H184ZM192.257 48.3086L197.86 42.5981L195.526 40.3086H192.257V48.3086ZM235 90.2451H227V99.3086H235H243V90.2451H235ZM235 99.3086V91.3086H204V99.3086V107.309H235V99.3086ZM204 99.3086V91.3086C197.373 91.3086 192 85.936 192 79.3086H184H176C176 94.7726 188.536 107.309 204 107.309V99.3086ZM184 79.3086H192V48.3086H184H176V79.3086H184ZM184 48.3086V56.3086H192.257V48.3086V40.3086H184V48.3086ZM192.257 48.3086L186.654 54.0191L229.397 95.9556L235 90.2451L240.603 84.5346L197.86 42.5981L192.257 48.3086Z" fill="#7A2D2A" mask="url(#path-8-inside-2_48_155)"/>
<path d="M204.5 169.309L200.5 169.263L200.5 169.286L200.5 169.309L204.5 169.309ZM204.5 234.308L227.594 194.308L181.406 194.308L204.5 234.308ZM159 130.308C156.791 130.308 155 132.099 155 134.308C155 136.518 156.791 138.308 159 138.308L159 134.308L159 130.308ZM174 134.309L174.218 130.314L174.109 130.309L174 130.309L174 134.309ZM204.5 169.309L200.5 169.309L200.5 198.308L204.5 198.308L208.5 198.308L208.5 169.309L204.5 169.309ZM159 134.308L159 138.308L174 138.309L174 134.309L174 130.309L159 130.308L159 134.308ZM174 134.309L173.782 138.303C185.267 138.929 200.721 150.039 200.5 169.263L204.5 169.309L208.5 169.355C208.775 145.332 189.447 131.145 174.218 130.314L174 134.309Z" fill="#7A2D2A"/>
</svg>
