<svg width="72" height="72" viewBox="0 0 72 72" fill="none" xmlns="http://www.w3.org/2000/svg">
<rect x="24.8914" y="39.5607" width="26.3314" height="21.8057" rx="3.29143" fill="#E7DCCA" stroke="#7A2D2A" stroke-width="1.64571"/>
<rect x="17.8971" y="14.6692" width="26.3314" height="25.3029" rx="3.29143" fill="#E7DCCA" stroke="#7A2D2A" stroke-width="1.64571"/>
<rect x="29.0057" y="34.9714" width="25.92" height="22.2171" rx="3.70286" fill="#F3EEE7"/>
<path d="M21.6 14.2344C21.6 12.0959 23.4064 10.4019 25.5406 10.5392L36.5222 11.2456C37.3814 11.3009 38.1945 11.6539 38.8216 12.2438L46.3543 19.3298C47.0982 20.0296 47.52 21.0056 47.52 22.0269V35.7943H25.3029C23.2578 35.7943 21.6 34.1365 21.6 32.0914V14.2344Z" fill="#F3EEE7"/>
<path d="M46.9029 35.4464H52.0457C53.6363 35.4464 54.9257 36.7358 54.9257 38.3263V53.9606C54.9257 55.7784 53.4521 57.2521 51.6343 57.2521H32.1943C30.4333 57.2521 29.0057 55.8245 29.0057 54.0635V38.7378C29.0057 36.92 30.4793 35.4464 32.2971 35.4464H36.9257" stroke="#7A2D2A" stroke-width="1.64571" stroke-linecap="round"/>
<mask id="path-6-inside-1_54_809" fill="white">
<path d="M41.1058 11.5208H24.7894C23.4502 11.5208 22.3646 12.6064 22.3646 13.9456V32.509C22.3647 33.6776 23.3122 34.6252 24.4808 34.6252H36.9261C37.3804 34.6254 37.7493 34.9942 37.7493 35.4485C37.7489 35.9024 37.3801 36.2706 36.9261 36.2708H24.4808C22.4033 36.2708 20.7183 34.5865 20.7181 32.509V13.9456C20.7181 11.6975 22.5413 9.87427 24.7894 9.87427H39.4388L41.1058 11.5208ZM48.389 18.7131V36.2708H46.9036C46.4494 36.2708 46.0808 35.9026 46.0804 35.4485C46.0804 35.0487 46.3655 34.7152 46.7435 34.6409V17.0881L48.389 18.7131Z"/>
</mask>
<path d="M41.1058 11.5208H24.7894C23.4502 11.5208 22.3646 12.6064 22.3646 13.9456V32.509C22.3647 33.6776 23.3122 34.6252 24.4808 34.6252H36.9261C37.3804 34.6254 37.7493 34.9942 37.7493 35.4485C37.7489 35.9024 37.3801 36.2706 36.9261 36.2708H24.4808C22.4033 36.2708 20.7183 34.5865 20.7181 32.509V13.9456C20.7181 11.6975 22.5413 9.87427 24.7894 9.87427H39.4388L41.1058 11.5208ZM48.389 18.7131V36.2708H46.9036C46.4494 36.2708 46.0808 35.9026 46.0804 35.4485C46.0804 35.0487 46.3655 34.7152 46.7435 34.6409V17.0881L48.389 18.7131Z" fill="#F3EEE7"/>
<path d="M41.1058 11.5208V13.1665H45.1139L42.2622 10.3499L41.1058 11.5208ZM22.3646 32.509H20.7188L20.7188 32.5093L22.3646 32.509ZM36.9261 34.6252L36.9268 32.9795H36.9261V34.6252ZM37.7493 35.4485L39.395 35.45V35.4485H37.7493ZM36.9261 36.2708V37.9165H36.9268L36.9261 36.2708ZM20.7181 32.509H19.0724V32.5092L20.7181 32.509ZM39.4388 9.87427L40.5953 8.70339L40.1145 8.22855H39.4388V9.87427ZM48.389 18.7131H50.0347V18.0254L49.5454 17.5422L48.389 18.7131ZM48.389 36.2708V37.9165H50.0347V36.2708H48.389ZM46.0804 35.4485H44.4347L44.4347 35.45L46.0804 35.4485ZM46.7435 34.6409L47.0612 36.2556L48.3892 35.9943V34.6409H46.7435ZM46.7435 17.0881L47.8998 15.9172L45.0978 13.15V17.0881H46.7435ZM41.1058 11.5208V9.87504H24.7894V11.5208V13.1665H41.1058V11.5208ZM24.7894 11.5208V9.87504C22.5413 9.87504 20.7188 11.6975 20.7188 13.9456H22.3646H24.0103C24.0103 13.5153 24.3591 13.1665 24.7894 13.1665V11.5208ZM22.3646 13.9456H20.7188V32.509H22.3646H24.0103V13.9456H22.3646ZM22.3646 32.509L20.7188 32.5093C20.7192 34.5863 22.403 36.271 24.4808 36.271V34.6252V32.9795C24.2213 32.9795 24.0103 32.7689 24.0103 32.5088L22.3646 32.509ZM24.4808 34.6252V36.271H36.9261V34.6252V32.9795H24.4808V34.6252ZM36.9261 34.6252L36.9254 36.271C36.472 36.2708 36.1036 35.9038 36.1036 35.4485H37.7493H39.395C39.395 34.0845 38.2887 32.9801 36.9268 32.9795L36.9261 34.6252ZM37.7493 35.4485L36.1036 35.4469C36.104 34.9915 36.4728 34.6252 36.9254 34.625L36.9261 36.2708L36.9268 37.9165C38.2875 37.9159 39.3937 36.8134 39.395 35.45L37.7493 35.4485ZM36.9261 36.2708V34.625H24.4808V36.2708V37.9165H36.9261V36.2708ZM24.4808 36.2708V34.625C23.3118 34.625 22.3639 33.6771 22.3638 32.5089L20.7181 32.509L19.0724 32.5092C19.0726 35.4958 21.4948 37.9165 24.4808 37.9165V36.2708ZM20.7181 32.509H22.3638V13.9456H20.7181H19.0724V32.509H20.7181ZM20.7181 13.9456H22.3638C22.3638 12.6064 23.4502 11.52 24.7894 11.52V9.87427V8.22855C21.6324 8.22855 19.0724 10.7886 19.0724 13.9456H20.7181ZM24.7894 9.87427V11.52H39.4388V9.87427V8.22855H24.7894V9.87427ZM39.4388 9.87427L38.2823 11.0451L39.9493 12.6916L41.1058 11.5208L42.2622 10.3499L40.5953 8.70339L39.4388 9.87427ZM48.389 18.7131H46.7433V36.2708H48.389H50.0347V18.7131H48.389ZM48.389 36.2708V34.625H46.9036V36.2708V37.9165H48.389V36.2708ZM46.9036 36.2708V34.625C47.3574 34.625 47.7257 34.9923 47.7261 35.4469L46.0804 35.4485L44.4347 35.45C44.436 36.8128 45.5415 37.9165 46.9036 37.9165V36.2708ZM46.0804 35.4485H47.7261C47.7261 35.8495 47.4406 36.181 47.0612 36.2556L46.7435 34.6409L46.4258 33.0261C45.2903 33.2495 44.4347 34.2479 44.4347 35.4485H46.0804ZM46.7435 34.6409H48.3892V17.0881H46.7435H45.0978V34.6409H46.7435ZM46.7435 17.0881L45.5871 18.2591L47.2326 19.8841L48.389 18.7131L49.5454 17.5422L47.8998 15.9172L46.7435 17.0881Z" fill="#7A2D2A" mask="url(#path-6-inside-1_54_809)"/>
<mask id="path-8-inside-2_54_809" fill="white">
<path d="M48.3426 18.5637V20.429H41.9657C39.6935 20.4289 37.8515 18.5869 37.8514 16.3147V9.93774H39.5497L48.3426 18.5637Z"/>
</mask>
<path d="M48.3426 18.5637V20.429H41.9657C39.6935 20.4289 37.8515 18.5869 37.8514 16.3147V9.93774H39.5497L48.3426 18.5637Z" fill="#8D7D6E"/>
<path d="M48.3426 18.5637H49.9884V17.8728L49.4951 17.3889L48.3426 18.5637ZM48.3426 20.429V22.0747H49.9884V20.429H48.3426ZM41.9657 20.429L41.9657 22.0747H41.9657V20.429ZM37.8514 16.3147H36.2057V16.3148L37.8514 16.3147ZM37.8514 9.93774V8.29203H36.2057V9.93774H37.8514ZM39.5497 9.93774L40.7022 8.76295L40.2221 8.29203H39.5497V9.93774ZM48.3426 18.5637H46.6969V20.429H48.3426H49.9884V18.5637H48.3426ZM48.3426 20.429V18.7832H41.9657V20.429V22.0747H48.3426V20.429ZM41.9657 20.429L41.9657 18.7832C40.6024 18.7832 39.4972 17.678 39.4971 16.3146L37.8514 16.3147L36.2057 16.3148C36.2058 19.4957 38.7845 22.0746 41.9657 22.0747L41.9657 20.429ZM37.8514 16.3147H39.4971V9.93774H37.8514H36.2057V16.3147H37.8514ZM37.8514 9.93774V11.5835H39.5497V9.93774V8.29203H37.8514V9.93774ZM39.5497 9.93774L38.3972 11.1125L47.1902 19.7385L48.3426 18.5637L49.4951 17.3889L40.7022 8.76295L39.5497 9.93774Z" fill="#7A2D2A" mask="url(#path-8-inside-2_54_809)"/>
<path d="M42.0685 34.8292L41.2457 34.8198L41.2457 34.8292L42.0685 34.8292ZM42.0685 48.2006L46.8193 39.972L37.3178 39.972L42.0685 48.2006ZM32.7085 26.8063C32.2541 26.8063 31.8857 27.1747 31.8857 27.6292C31.8857 28.0836 32.2541 28.452 32.7085 28.452L32.7085 27.6292L32.7085 26.8063ZM35.7943 27.6292L35.8391 26.8075L35.8167 26.8063L35.7943 26.8063L35.7943 27.6292ZM42.0685 34.8292L41.2457 34.8292L41.2457 40.7949L42.0685 40.7949L42.8914 40.7949L42.8914 34.8292L42.0685 34.8292ZM32.7085 27.6292L32.7085 28.452L35.7943 28.452L35.7943 27.6292L35.7943 26.8063L32.7085 26.8063L32.7085 27.6292ZM35.7943 27.6292L35.7495 28.4508C38.112 28.5796 41.2912 30.8652 41.2457 34.8198L42.0685 34.8292L42.8913 34.8387C42.9481 29.8969 38.972 26.9783 35.8391 26.8075L35.7943 27.6292Z" fill="#7A2D2A"/>
</svg>
