<svg width="72" height="72" viewBox="0 0 72 72" fill="none" xmlns="http://www.w3.org/2000/svg">
<path d="M47.9314 39.5607H28.1829C26.3651 39.5607 24.8914 41.0344 24.8914 42.8522V58.075C24.8914 59.8928 26.3651 61.3664 28.1829 61.3664H47.9314C49.7492 61.3664 51.2229 59.8928 51.2229 58.075V42.8522C51.2229 41.0344 49.7492 39.5607 47.9314 39.5607Z" fill="#E7DCCA" stroke="#7A2D2A" stroke-width="1.64571"/>
<path d="M40.9371 14.6692H21.1886C19.3708 14.6692 17.8971 16.1428 17.8971 17.9606V36.6806C17.8971 38.4984 19.3708 39.972 21.1886 39.972H40.9371C42.7549 39.972 44.2286 38.4984 44.2286 36.6806V17.9606C44.2286 16.1428 42.7549 14.6692 40.9371 14.6692Z" fill="#E7DCCA" stroke="#7A2D2A" stroke-width="1.64571"/>
<path d="M51.2229 35.4464H32.7086C30.6635 35.4464 29.0057 37.1042 29.0057 39.1493V53.5493C29.0057 55.5943 30.6635 57.2521 32.7086 57.2521H51.2229C53.2679 57.2521 54.9257 55.5943 54.9257 53.5493V39.1493C54.9257 37.1042 53.2679 35.4464 51.2229 35.4464Z" fill="#F3EEE7"/>
<path d="M21.6 14.2938C21.6 12.1568 23.4039 10.4634 25.5368 10.5984L36.5369 11.2946C37.3871 11.3484 38.1929 11.6938 38.8181 12.2725L46.3324 19.2271C47.0894 19.9279 47.52 20.9129 47.52 21.9446V35.4464H25.3029C23.2579 35.4464 21.6 33.7886 21.6 31.7436V14.2938Z" fill="#F3EEE7"/>
<path d="M46.9029 35.4464H52.0457C53.6363 35.4464 54.9257 36.7358 54.9257 38.3264V53.9607C54.9257 55.7784 53.4522 57.2521 51.6343 57.2521H32.1943C30.4334 57.2521 29.0057 55.8245 29.0057 54.0636V38.7378C29.0057 36.9199 30.4792 35.4464 32.2971 35.4464H36.9257" stroke="#7A2D2A" stroke-width="1.64571" stroke-linecap="round"/>
<path d="M41.105 11.52H24.7886C23.4496 11.52 22.3638 12.6057 22.3638 13.9448V32.5086C22.3638 33.6773 23.3113 34.6246 24.48 34.6246H36.9257C37.3801 34.6248 37.7486 34.9932 37.7486 35.4474C37.7486 35.9019 37.3801 36.2703 36.9257 36.2703H24.48C22.4025 36.2703 20.7181 34.5863 20.7181 32.5086V13.9448C20.7181 11.6968 22.5405 9.87431 24.7886 9.87427H39.4387L41.105 11.52ZM48.3889 18.7134V36.2703H46.9029C46.4484 36.2703 46.08 35.9019 46.08 35.4474C46.08 35.0477 46.3651 34.7147 46.7432 34.6404V17.0881L48.3889 18.7134Z" fill="#F3EEE7"/>
<mask id="mask0_51_528" style="mask-type:luminance" maskUnits="userSpaceOnUse" x="20" y="9" width="29" height="28">
<path d="M41.105 11.52H24.7886C23.4496 11.52 22.3638 12.6057 22.3638 13.9448V32.5086C22.3638 33.6773 23.3113 34.6246 24.48 34.6246H36.9257C37.3801 34.6248 37.7486 34.9932 37.7486 35.4474C37.7486 35.9019 37.3801 36.2703 36.9257 36.2703H24.48C22.4025 36.2703 20.7181 34.5863 20.7181 32.5086V13.9448C20.7181 11.6968 22.5405 9.87431 24.7886 9.87427H39.4387L41.105 11.52ZM48.3889 18.7134V36.2703H46.9029C46.4484 36.2703 46.08 35.9019 46.08 35.4474C46.08 35.0477 46.3651 34.7147 46.7432 34.6404V17.0881L48.3889 18.7134Z" fill="white"/>
</mask>
<g mask="url(#mask0_51_528)">
<path d="M41.105 11.5199V13.1657H45.1135L42.2615 10.349L41.105 11.5199ZM36.9257 34.6245L36.9259 32.9788H36.9257V34.6245ZM36.9257 36.2703V37.916H36.9259L36.9257 36.2703ZM39.4387 9.87423L40.595 8.70328L40.1143 8.22852H39.4387V9.87423ZM48.3889 18.7133H50.0346V18.0256L49.5453 17.5424L48.3889 18.7133ZM48.3889 36.2703V37.916H50.0346V36.2703H48.3889ZM46.9029 36.2703L46.9026 37.916H46.9029V36.2703ZM46.7432 34.6404L47.0608 36.255L48.3889 35.9938V34.6404H46.7432ZM46.7432 17.0881L47.8995 15.9171L45.0975 13.1499V17.0881H46.7432ZM41.105 11.5199V9.87423H24.7886V11.5199V13.1657H41.105V11.5199ZM24.7886 11.5199V9.87423C22.5405 9.87429 20.7181 11.6967 20.7181 13.9447L22.3638 13.9447L24.0095 13.9448C24.0095 13.5145 24.3584 13.1657 24.7886 13.1657V11.5199ZM22.3638 13.9447L20.7181 13.9447V32.5086H22.3638H24.0095V13.9448L22.3638 13.9447ZM22.3638 32.5086H20.7181C20.7181 34.5865 22.4027 36.2703 24.48 36.2703V34.6245V32.9788C24.22 32.9788 24.0095 32.7682 24.0095 32.5086H22.3638ZM24.48 34.6245V36.2703H36.9257V34.6245V32.9788H24.48V34.6245ZM36.9257 34.6245L36.9255 36.2703C36.4711 36.2703 36.1028 35.902 36.1028 35.4478L37.7486 35.4474H39.3943C39.3941 34.0845 38.2892 32.979 36.9259 32.9788L36.9257 34.6245ZM37.7486 35.4474H36.1028C36.1028 34.993 36.4713 34.6247 36.9255 34.6245L36.9257 36.2703L36.9259 37.916C38.289 37.916 39.3943 36.8109 39.3943 35.4474H37.7486ZM36.9257 36.2703V34.6245H24.48V36.2703V37.916H36.9257V36.2703ZM24.48 36.2703V34.6245C23.3111 34.6245 22.3638 33.6772 22.3638 32.5086H20.7181H19.0724C19.0724 35.4953 21.4936 37.916 24.48 37.916V36.2703ZM20.7181 32.5086H22.3638V13.9447L20.7181 13.9447L19.0724 13.9447V32.5086H20.7181ZM20.7181 13.9447L22.3638 13.9447C22.3638 12.6056 23.4496 11.52 24.7886 11.5199V9.87423V8.22852C21.6317 8.22856 19.0724 10.7878 19.0724 13.9447L20.7181 13.9447ZM24.7886 9.87423V11.5199H39.4387V9.87423V8.22852H24.7886V9.87423ZM39.4387 9.87423L38.2822 11.0452L39.9487 12.6909L41.105 11.5199L42.2615 10.349L40.595 8.70328L39.4387 9.87423ZM48.3889 18.7133H46.7432V36.2703H48.3889H50.0346V18.7133H48.3889ZM48.3889 36.2703V34.6245H46.9029V36.2703V37.916H48.3889V36.2703ZM46.9029 36.2703L46.9031 34.6245C47.3573 34.6247 47.7257 34.993 47.7257 35.4474H46.08L44.4343 35.4472C44.4343 36.8107 45.5396 37.916 46.9026 37.916L46.9029 36.2703ZM46.08 35.4474L47.7257 35.4478C47.7257 35.8496 47.4394 36.1806 47.0608 36.255L46.7432 34.6404L46.4256 33.0255C45.2909 33.2487 44.4345 34.246 44.4343 35.4472L46.08 35.4474ZM46.7432 34.6404H48.3889V17.0881H46.7432H45.0975V34.6404H46.7432ZM46.7432 17.0881L45.5867 18.2591L47.2324 19.8843L48.3889 18.7133L49.5453 17.5424L47.8995 15.9171L46.7432 17.0881Z" fill="#7A2D2A"/>
</g>
<path d="M48.3429 18.5647V20.4292H41.9657C39.6934 20.4292 37.8514 18.5871 37.8514 16.3149V9.93774H39.55L48.3429 18.5647Z" fill="#8D7D6E"/>
<mask id="mask1_51_528" style="mask-type:luminance" maskUnits="userSpaceOnUse" x="37" y="9" width="12" height="12">
<path d="M48.3429 18.5647V20.4292H41.9657C39.6934 20.4292 37.8514 18.5871 37.8514 16.3149V9.93774H39.55L48.3429 18.5647Z" fill="white"/>
</mask>
<g mask="url(#mask1_51_528)">
<path d="M48.3429 18.5647H49.9886V17.8738L49.4955 17.39L48.3429 18.5647ZM48.3429 20.4292V22.075H49.9886V20.4292H48.3429ZM37.8514 9.93777V8.29205H36.2057V9.93777H37.8514ZM39.55 9.93777L40.7026 8.76304L40.2225 8.29205H39.55V9.93777ZM48.3429 18.5647H46.6971V20.4292H48.3429H49.9886V18.5647H48.3429ZM48.3429 20.4292V18.7835H41.9657V20.4292V22.075H48.3429V20.4292ZM41.9657 20.4292V18.7835C40.6025 18.7835 39.4971 17.6783 39.4971 16.3149H37.8514H36.2057C36.2057 19.4961 38.7846 22.075 41.9657 22.075V20.4292ZM37.8514 16.3149H39.4971V9.93777H37.8514H36.2057V16.3149H37.8514ZM37.8514 9.93777V11.5835H39.55V9.93777V8.29205H37.8514V9.93777ZM39.55 9.93777L38.3974 11.1125L47.1902 19.7394L48.3429 18.5647L49.4955 17.39L40.7026 8.76304L39.55 9.93777Z" fill="#7A2D2A"/>
</g>
<path d="M42.0686 34.8293L41.2457 34.8198V34.8245V34.8293H42.0686ZM42.0686 48.2005L46.8193 39.9719H37.3178L42.0686 48.2005ZM32.7086 26.8062C32.2541 26.8062 31.8857 27.1746 31.8857 27.6291C31.8857 28.0837 32.2541 28.4519 32.7086 28.4519V27.6291V26.8062ZM35.7943 27.6293L35.8391 26.8074L35.8167 26.8064H35.7943V27.6293ZM42.0686 34.8293H41.2457V40.7948H42.0686H42.8914V34.8293H42.0686ZM32.7086 27.6291V28.4519L35.7943 28.4521V27.6293V26.8064L32.7086 26.8062V27.6291ZM35.7943 27.6293L35.7494 28.4509C38.1121 28.5797 41.2912 30.8652 41.2457 34.8198L42.0686 34.8293L42.8914 34.8387C42.948 29.8969 38.972 26.9784 35.8391 26.8074L35.7943 27.6293Z" fill="#7A2D2A"/>
</svg>
