<svg width="72" height="72" viewBox="0 0 72 72" fill="none" xmlns="http://www.w3.org/2000/svg">
<path d="M44.4344 20.2034V42.0042L37.4783 48.9603H16.2918V12.7542H35.5672L44.4344 20.2034Z" fill="#F3EEE7"/>
<path d="M37.9921 12.7576H19.1385C17.5454 12.7579 16.2538 14.0492 16.2538 15.6424V31.6902C16.2535 32.0884 15.9303 32.4119 15.5321 32.4119C15.1341 32.4117 14.8107 32.0882 14.8104 31.6902V15.6424C14.8104 13.2525 16.7487 11.3145 19.1385 11.3143H36.4667L37.9921 12.7576ZM45.5868 19.9461V31.6902C45.5866 32.0884 45.2633 32.4119 44.8651 32.4119C44.4673 32.4115 44.1446 32.0881 44.1444 31.6902V18.5809L45.5868 19.9461Z" fill="#7A2D2A"/>
<mask id="path-3-inside-1_52_782" fill="white">
<path d="M45.6282 19.9607V21.2312H38.7581C36.7665 21.2312 35.1518 19.6173 35.1516 17.6257V11.3142H36.4944L45.6282 19.9607Z"/>
</mask>
<path d="M45.6282 19.9607V21.2312H38.7581C36.7665 21.2312 35.1518 19.6173 35.1516 17.6257V11.3142H36.4944L45.6282 19.9607Z" fill="#8D7D6E"/>
<path d="M45.6282 19.9607H47.0707V19.3399L46.6199 18.9131L45.6282 19.9607ZM45.6282 21.2312V22.6737H47.0707V21.2312H45.6282ZM35.1516 17.6257H33.7091V17.6259L35.1516 17.6257ZM35.1516 11.3142V9.87167H33.7091V11.3142H35.1516ZM36.4944 11.3142L37.4861 10.2666L37.0689 9.87167H36.4944V11.3142ZM45.6282 19.9607H44.1856V21.2312H45.6282H47.0707V19.9607H45.6282ZM45.6282 21.2312V19.7887H38.7581V21.2312V22.6737H45.6282V21.2312ZM38.7581 21.2312V19.7887C37.5628 19.7887 36.5943 18.8202 36.5942 17.6256L35.1516 17.6257L33.7091 17.6259C33.7094 20.4144 35.9701 22.6737 38.7581 22.6737V21.2312ZM35.1516 17.6257H36.5942V11.3142H35.1516H33.7091V17.6257H35.1516ZM35.1516 11.3142V12.7567H36.4944V11.3142V9.87167H35.1516V11.3142ZM36.4944 11.3142L35.5027 12.3618L44.6365 21.0083L45.6282 19.9607L46.6199 18.9131L37.4861 10.2666L36.4944 11.3142Z" fill="#7A2D2A" mask="url(#path-3-inside-1_52_782)"/>
<path d="M15.542 29.4171C15.9403 29.4171 16.2637 29.7404 16.2637 30.1387V45.8692C16.2639 47.4622 17.5554 48.7547 19.1484 48.7549H37.6367L36.1846 50.1973H19.1484C16.7587 50.1971 14.8206 48.2589 14.8203 45.8692V30.1387C14.8203 29.7405 15.1439 29.4173 15.542 29.4171ZM44.8564 29.4171C45.2548 29.4171 45.5781 29.7404 45.5781 30.1387V40.8653L44.1357 42.2989V30.1387C44.1357 29.7406 44.4584 29.4174 44.8564 29.4171Z" fill="#7A2D2A"/>
<mask id="path-6-inside-2_52_782" fill="white">
<path d="M45.463 40.9759L36.2442 50.1946H35.3829V43.515C35.3829 41.5232 36.9976 39.9085 38.9893 39.9085H45.463V40.9759Z"/>
</mask>
<path d="M45.463 40.9759L36.2442 50.1946H35.3829V43.515C35.3829 41.5232 36.9976 39.9085 38.9893 39.9085H45.463V40.9759Z" fill="#8D7D6E"/>
<path d="M45.463 40.9759L46.6266 42.1396L47.1087 41.6576V40.9759H45.463ZM36.2442 50.1946V51.8404H36.9259L37.4079 51.3583L36.2442 50.1946ZM35.3829 50.1946H33.7372V51.8404H35.3829V50.1946ZM35.3829 43.515L33.7372 43.515V43.515H35.3829ZM45.463 39.9085H47.1087V38.2628H45.463V39.9085ZM45.463 40.9759L44.2993 39.8122L35.0805 49.0309L36.2442 50.1946L37.4079 51.3583L46.6266 42.1396L45.463 40.9759ZM36.2442 50.1946V48.5489H35.3829V50.1946V51.8404H36.2442V50.1946ZM35.3829 50.1946H37.0286V43.515H35.3829H33.7372V50.1946H35.3829ZM35.3829 43.515L37.0286 43.515C37.0286 42.4321 37.9065 41.5542 38.9893 41.5542V39.9085V38.2628C36.0887 38.2628 33.7372 40.6143 33.7372 43.515L35.3829 43.515ZM38.9893 39.9085V41.5542H45.463V39.9085V38.2628H38.9893V39.9085ZM45.463 39.9085H43.8172V40.9759H45.463H47.1087V39.9085H45.463Z" fill="#7A2D2A" mask="url(#path-6-inside-2_52_782)"/>
<path d="M30.6027 51.9081C30.2994 51.6509 29.8451 51.6883 29.5879 51.9916C29.3308 52.2949 29.3682 52.7492 29.6715 53.0064L30.1371 52.4572L30.6027 51.9081ZM46.1829 53.4858L45.7636 52.9005L46.1829 53.4858ZM50.7085 37.1314L51.3739 36.8565L51.3561 36.8135L51.333 36.7731L50.7085 37.1314ZM47.1084 30.8571L47.0861 39.1709L54.2972 35.0334L47.1084 30.8571ZM30.1371 52.4572L29.6715 53.0064C30.5716 53.7696 32.6339 55.5999 35.5564 56.4492C38.5257 57.312 42.3119 57.1448 46.6022 54.0711L46.1829 53.4858L45.7636 52.9005C41.8314 55.7176 38.5023 55.8057 35.9582 55.0664C33.3673 54.3134 31.518 52.6841 30.6027 51.9081L30.1371 52.4572ZM46.1829 53.4858L46.6022 54.0711C50.891 50.9986 52.3973 47.3678 52.6521 44.1369C52.904 40.9435 51.9298 38.2022 51.3739 36.8565L50.7085 37.1314L50.043 37.4063C50.5675 38.676 51.4419 41.1664 51.2166 44.0237C50.9942 46.8434 49.6975 50.0822 45.7636 52.9005L46.1829 53.4858ZM50.7085 37.1314L51.333 36.7731L50.9578 36.1193L50.3333 36.4776L49.7088 36.836L50.084 37.4897L50.7085 37.1314Z" fill="#B56A45"/>
</svg>
