<svg width="350" height="350" viewBox="0 0 350 350" fill="none" xmlns="http://www.w3.org/2000/svg">
<path d="M89 75H189L235 121.5V301H89V75Z" fill="#F3EEE7"/>
<path d="M85 172V285C85 296.046 93.9543 305 105 305H219C230.046 305 239 296.046 239 285V172" stroke="#7A2D2A" stroke-width="8" stroke-linecap="round"/>
<path d="M202.908 75H105C96.1634 75 89 82.1634 89 91V180C89 182.209 87.2091 184 85 184C82.7909 184 81 182.209 81 180V91C81 77.7452 91.7452 67 105 67H194.908L202.908 75ZM243 115.092V180C243 182.209 241.209 184 239 184C236.791 184 235 182.209 235 180V107.092L243 115.092Z" fill="#7A2D2A"/>
<mask id="path-4-inside-1_48_267" fill="white">
<path d="M243 114.949V122H208C196.954 122 188 113.046 188 102V67H195.05L243 114.949Z"/>
</mask>
<path d="M243 114.949V122H208C196.954 122 188 113.046 188 102V67H195.05L243 114.949Z" fill="#8D7D6E"/>
<path d="M243 114.949H251V111.635L248.657 109.292L243 114.949ZM243 122V130H251V122H243ZM208 122V130V130V122ZM188 102H180V102H188ZM188 67V59H180V67H188ZM195.05 67L200.707 61.3431L198.363 59H195.05V67ZM243 114.949H235V122H243H251V114.949H243ZM243 122V114H208V122V130H243V122ZM208 122V114C201.373 114 196 108.627 196 102H188H180C180 117.464 192.536 130 208 130V122ZM188 102H196V67H188H180V102H188ZM188 67V75H195.05V67V59H188V67ZM195.05 67L189.393 72.6569L237.343 120.606L243 114.949L248.657 109.292L200.707 61.3431L195.05 67Z" fill="#7A2D2A" mask="url(#path-4-inside-1_48_267)"/>
<circle cx="239" cy="75" r="28" fill="#7A2D2A" stroke="white" stroke-width="2"/>
<path d="M234.315 87.54C234.315 87.2367 234.257 87.085 234.14 87.085L233.335 87.47C233.335 87.3067 233.242 87.19 233.055 87.12L232.775 87.085C232.588 87.085 232.355 87.1667 232.075 87.33C232.028 87.2133 231.97 87.0967 231.9 86.98C231.83 86.8633 231.772 86.7583 231.725 86.665C231.422 86.0817 231.118 85.44 230.815 84.74C230.535 84.0167 230.267 83.3283 230.01 82.675C229.777 82.0217 229.59 81.5083 229.45 81.135C229.357 80.8317 229.252 80.3767 229.135 79.77C229.018 79.1633 228.902 78.3933 228.785 77.46C229.042 77.6233 229.24 77.705 229.38 77.705C229.543 77.705 229.695 77.46 229.835 76.97C229.905 77.0633 230.033 77.11 230.22 77.11C230.36 77.11 230.465 77.0633 230.535 76.97L231.095 76.13L231.725 76.34H231.76C231.807 76.34 231.853 76.3167 231.9 76.27C231.947 76.2233 232.017 76.1767 232.11 76.13C232.297 76.0133 232.437 75.955 232.53 75.955L232.635 75.99C233.218 76.27 233.592 76.7833 233.755 77.53C234.175 79.3033 234.595 80.19 235.015 80.19C235.435 80.19 235.925 79.7467 236.485 78.86C236.765 78.4167 237.045 77.9033 237.325 77.32C237.628 76.7367 237.932 76.0833 238.235 75.36C238.282 75.64 238.328 75.78 238.375 75.78C238.492 75.78 238.69 75.4883 238.97 74.905C239.273 74.3217 239.752 73.5167 240.405 72.49C240.778 71.86 241.245 71.1483 241.805 70.355C242.388 69.5617 243.007 68.745 243.66 67.905C244.313 67.065 244.943 66.2717 245.55 65.525C246.18 64.7783 246.74 64.1367 247.23 63.6C247.72 63.0633 248.082 62.7133 248.315 62.55C249.202 61.9433 249.902 61.36 250.415 60.8C250.392 60.9633 250.357 61.115 250.31 61.255C250.287 61.3717 250.275 61.4533 250.275 61.5C250.275 61.5933 250.322 61.64 250.415 61.64L251.395 61.15V61.29C251.395 61.4767 251.442 61.57 251.535 61.57C251.605 61.57 251.745 61.465 251.955 61.255C252.165 61.045 252.282 60.8933 252.305 60.8L252.235 61.29L253.425 60.59L253.145 61.22C253.518 60.9633 253.787 60.835 253.95 60.835C254.043 60.835 254.113 60.8933 254.16 61.01C254.207 61.1033 254.23 61.1967 254.23 61.29C254.23 61.43 254.172 61.5933 254.055 61.78C253.938 61.9667 253.787 62.1883 253.6 62.445C253.46 62.6317 253.227 62.9117 252.9 63.285C252.597 63.635 252.13 64.16 251.5 64.86C250.87 65.5367 250.03 66.4817 248.98 67.695C248.7 67.9983 248.268 68.535 247.685 69.305C247.102 70.0517 246.437 70.9267 245.69 71.93C244.967 72.91 244.243 73.9017 243.52 74.905C242.797 75.9083 242.155 76.8183 241.595 77.635C241.035 78.4283 240.638 79.0233 240.405 79.42L238.235 83.095C237.768 83.8883 237.383 84.5417 237.08 85.055C236.777 85.545 236.543 85.8833 236.38 86.07C236.03 86.49 235.645 86.8633 235.225 87.19L234.91 87.015L234.63 87.19L234.315 87.54Z" fill="white"/>
</svg>
