<svg width="72" height="72" viewBox="0 0 72 72" fill="none" xmlns="http://www.w3.org/2000/svg">
<path d="M20.9828 13.1657H41.5543L51.0171 22.7314V59.6571H20.9828V13.1657Z" fill="#F3EEE7"/>
<path d="M20.16 42.2743V56.3657C20.16 58.638 22.002 60.48 24.2743 60.48H47.7257C49.998 60.48 51.84 58.638 51.84 56.3657V42.2743" stroke="#7A2D2A" stroke-width="1.64571" stroke-linecap="round"/>
<path d="M44.4163 13.1665H24.2747C22.4569 13.1665 20.9837 14.6397 20.9836 16.4575V34.7661C20.9834 35.2202 20.6145 35.5891 20.1604 35.5894C19.7061 35.5894 19.3374 35.2204 19.3372 34.7661V16.4575C19.3372 13.7308 21.548 11.52 24.2747 11.52H42.7698L44.4163 13.1665ZM52.6633 21.4136V34.7661C52.6631 35.2202 52.2942 35.5891 51.8401 35.5894C51.3859 35.5892 51.018 35.2203 51.0178 34.7661V19.7681L52.6633 21.4136Z" fill="#7A2D2A"/>
<mask id="path-4-inside-1_51_546" fill="white">
<path d="M52.663 21.3833V22.8345H45.4628C43.1907 22.8345 41.3487 20.9924 41.3486 18.7202V11.52H42.7997L52.663 21.3833Z"/>
</mask>
<path d="M52.663 21.3833V22.8345H45.4628C43.1907 22.8345 41.3487 20.9924 41.3486 18.7202V11.52H42.7997L52.663 21.3833Z" fill="#8D7D6E"/>
<path d="M52.663 21.3833H54.3087V20.7016L53.8267 20.2196L52.663 21.3833ZM52.663 22.8345V24.4802H54.3087V22.8345H52.663ZM45.4628 22.8345L45.4628 24.4802H45.4628V22.8345ZM41.3486 18.7202H39.7029V18.7203L41.3486 18.7202ZM41.3486 11.52V9.87431H39.7029V11.52H41.3486ZM42.7997 11.52L43.9634 10.3563L43.4814 9.87431H42.7997V11.52ZM52.663 21.3833H51.0173V22.8345H52.663H54.3087V21.3833H52.663ZM52.663 22.8345V21.1888H45.4628V22.8345V24.4802H52.663V22.8345ZM45.4628 22.8345L45.4628 21.1888C44.0996 21.1887 42.9943 20.0835 42.9943 18.7201L41.3486 18.7202L39.7029 18.7203C39.703 21.9012 42.2817 24.4802 45.4628 24.4802L45.4628 22.8345ZM41.3486 18.7202H42.9943V11.52H41.3486H39.7029V18.7202H41.3486ZM41.3486 11.52V13.1657H42.7997V11.52V9.87431H41.3486V11.52ZM42.7997 11.52L41.636 12.6837L51.4993 22.547L52.663 21.3833L53.8267 20.2196L43.9634 10.3563L42.7997 11.52Z" fill="#7A2D2A" mask="url(#path-4-inside-1_51_546)"/>
<path d="M12.5486 38.4686L59.2457 38.4686" stroke="#7A2D2A" stroke-width="1.64571" stroke-linecap="round" stroke-dasharray="3.29 3.29"/>
<path d="M36.5143 42.1714C36.5143 41.8874 36.284 41.6572 36 41.6572C35.716 41.6572 35.4857 41.8874 35.4857 42.1714H36H36.5143ZM36 51.4286L38.9692 46.2857H33.0308L36 51.4286ZM36 42.1714H35.4857V46.8H36H36.5143V42.1714H36Z" fill="#B56A45"/>
<path d="M35.4857 34.56C35.4857 34.844 35.716 35.0743 36 35.0743C36.284 35.0743 36.5143 34.844 36.5143 34.56H36H35.4857ZM36 25.3029L33.0308 30.4457H38.9692L36 25.3029ZM36 34.56H36.5143V29.9314H36H35.4857V34.56H36Z" fill="#B56A45"/>
</svg>
