<svg width="72" height="72" viewBox="0 0 72 72" fill="none" xmlns="http://www.w3.org/2000/svg">
<mask id="mask0_51_576" style="mask-type:luminance" maskUnits="userSpaceOnUse" x="4" y="20" width="22" height="32">
<path d="M25.0971 20.7772H4.5257V51.4286H25.0971V20.7772Z" fill="white"/>
</mask>
<g mask="url(#mask0_51_576)">
<path d="M5.54156 21.7905H18.24L24.0813 27.6801V50.4152H5.54156V21.7905Z" fill="#F3EEE7"/>
<path d="M5.03363 34.0764V48.3887C5.03363 49.7878 6.1707 50.9219 7.57332 50.9219H22.0495C23.4522 50.9219 24.5892 49.7878 24.5892 48.3887V34.0764" stroke="#7A2D2A" stroke-width="1.008" stroke-linecap="round"/>
<path d="M20.0061 21.7905H7.57331C6.4512 21.7905 5.54157 22.6977 5.54157 23.817V35.0895C5.54157 35.3693 5.31416 35.5962 5.03363 35.5962C4.75311 35.5962 4.5257 35.3693 4.5257 35.0895V23.817C4.5257 22.1382 5.89016 20.7772 7.57331 20.7772H18.9902L20.0061 21.7905ZM25.0971 26.8684V35.0895C25.0971 35.3693 24.8696 35.5962 24.5892 35.5962C24.3086 35.5962 24.0813 35.3693 24.0813 35.0895V25.8552L25.0971 26.8684Z" fill="#7A2D2A"/>
<path d="M25.0972 26.8503V27.7435H20.6527C19.2501 27.7435 18.113 26.6092 18.113 25.2103V20.7772H19.0083L25.0972 26.8503Z" fill="#8D7D6E"/>
<mask id="mask1_51_576" style="mask-type:luminance" maskUnits="userSpaceOnUse" x="18" y="20" width="8" height="8">
<path d="M25.0972 26.8503V27.7435H20.6527C19.2501 27.7435 18.113 26.6092 18.113 25.2103V20.7772H19.0083L25.0972 26.8503Z" fill="white"/>
</mask>
<g mask="url(#mask1_51_576)">
<path d="M25.0971 26.8502H26.113V26.4306L25.8155 26.1337L25.0971 26.8502ZM25.0971 27.7434V28.7566H26.113V27.7434H25.0971ZM18.113 20.7771V19.7639H17.0972V20.7771H18.113ZM19.0083 20.7771L19.7266 20.0606L19.429 19.7639H19.0083V20.7771ZM25.0971 26.8502H24.0813V27.7434H25.0971H26.113V26.8502H25.0971ZM25.0971 27.7434V26.7301H20.6527V27.7434V28.7566H25.0971V27.7434ZM20.6527 27.7434V26.7301C19.8112 26.7301 19.1289 26.0496 19.1289 25.2103H18.113H17.0972C17.0972 27.1689 18.689 28.7566 20.6527 28.7566V27.7434ZM18.113 25.2103H19.1289V20.7771H18.113H17.0972V25.2103H18.113ZM18.113 20.7771V21.7905H19.0083V20.7771V19.7639H18.113V20.7771ZM19.0083 20.7771L18.2899 21.4936L24.3788 27.5667L25.0971 26.8502L25.8155 26.1337L19.7266 20.0606L19.0083 20.7771Z" fill="#7A2D2A"/>
</g>
</g>
<mask id="mask2_51_576" style="mask-type:luminance" maskUnits="userSpaceOnUse" x="46" y="20" width="22" height="32">
<path d="M67.2686 20.7772H46.6971V51.4286H67.2686V20.7772Z" fill="white"/>
</mask>
<g mask="url(#mask2_51_576)">
<path d="M47.713 21.7905H60.4115L66.2527 27.6801V50.4152H47.713V21.7905Z" fill="#F3EEE7"/>
<path d="M47.2051 34.0764V48.3887C47.2051 49.7878 48.3421 50.9219 49.7448 50.9219H64.2209C65.6237 50.9219 66.7607 49.7878 66.7607 48.3887V34.0764" stroke="#7A2D2A" stroke-width="1.008" stroke-linecap="round"/>
<path d="M62.1776 21.7905H49.7448C48.6226 21.7905 47.713 22.6977 47.713 23.817V35.0895C47.713 35.3693 47.4856 35.5962 47.2051 35.5962C46.9245 35.5962 46.6971 35.3693 46.6971 35.0895V23.817C46.6971 22.1382 48.0616 20.7772 49.7448 20.7772H61.1617L62.1776 21.7905ZM67.2686 26.8684V35.0895C67.2686 35.3693 67.0411 35.5962 66.7607 35.5962C66.4801 35.5962 66.2528 35.3693 66.2528 35.0895V25.8552L67.2686 26.8684Z" fill="#7A2D2A"/>
<path d="M67.2686 26.8503V27.7435H62.8241C61.4215 27.7435 60.2844 26.6092 60.2844 25.2103V20.7772H61.1796L67.2686 26.8503Z" fill="#8D7D6E"/>
<mask id="mask3_51_576" style="mask-type:luminance" maskUnits="userSpaceOnUse" x="60" y="20" width="8" height="8">
<path d="M67.2686 26.8503V27.7435H62.8241C61.4215 27.7435 60.2844 26.6092 60.2844 25.2103V20.7772H61.1796L67.2686 26.8503Z" fill="white"/>
</mask>
<g mask="url(#mask3_51_576)">
<path d="M67.2686 26.8502H68.2844V26.4306L67.9869 26.1337L67.2686 26.8502ZM67.2686 27.7434V28.7566H68.2844V27.7434H67.2686ZM60.2844 20.7771V19.7639H59.2686V20.7771H60.2844ZM61.1796 20.7771L61.898 20.0606L61.6003 19.7639H61.1796V20.7771ZM67.2686 26.8502H66.2528V27.7434H67.2686H68.2844V26.8502H67.2686ZM67.2686 27.7434V26.7301H62.8241V27.7434V28.7566H67.2686V27.7434ZM62.8241 27.7434V26.7301C61.9825 26.7301 61.3004 26.0496 61.3004 25.2103H60.2844H59.2686C59.2686 27.1689 60.8604 28.7566 62.8241 28.7566V27.7434ZM60.2844 25.2103H61.3004V20.7771H60.2844H59.2686V25.2103H60.2844ZM60.2844 20.7771V21.7905H61.1796V20.7771V19.7639H60.2844V20.7771ZM61.1796 20.7771L60.4613 21.4936L66.5502 27.5667L67.2686 26.8502L67.9869 26.1337L61.898 20.0606L61.1796 20.7771Z" fill="#7A2D2A"/>
</g>
</g>
<path d="M27.36 36H44.4343" stroke="#B56A45" stroke-width="1.02857" stroke-linecap="round" stroke-dasharray="2.06 2.06"/>
</svg>
