<svg width="72" height="72" viewBox="0 0 72 72" fill="none" xmlns="http://www.w3.org/2000/svg">
<path d="M21 15H41.625L49.125 22.5V56.25H21V15Z" fill="white" stroke="#9B5A4A" stroke-width="3.9" stroke-linejoin="round"/>
<path d="M40 15V25H50" fill="white"/>
<path d="M40 15V25H50" stroke="#9B5A4A" stroke-width="4" stroke-linejoin="round"/>
<circle cx="48.5" cy="14.5" r="5.35" fill="#9B5A4A" stroke="white" stroke-width="0.3"/>
<path d="M47.463 17.308C47.463 17.2473 47.4513 17.217 47.428 17.217L47.267 17.294C47.267 17.2613 47.2483 17.238 47.211 17.224L47.155 17.217C47.1177 17.217 47.071 17.2333 47.015 17.266C47.0057 17.2427 46.994 17.2193 46.98 17.196C46.966 17.1727 46.9543 17.1517 46.945 17.133C46.8843 17.0163 46.8237 16.888 46.763 16.748C46.707 16.6033 46.6533 16.4657 46.602 16.335C46.5553 16.2043 46.518 16.1017 46.49 16.027C46.4713 15.9663 46.4503 15.8753 46.427 15.754C46.4037 15.6327 46.3803 15.4787 46.357 15.292C46.4083 15.3247 46.448 15.341 46.476 15.341C46.5087 15.341 46.539 15.292 46.567 15.194C46.581 15.2127 46.6067 15.222 46.644 15.222C46.672 15.222 46.693 15.2127 46.707 15.194L46.819 15.026L46.945 15.068H46.952C46.9613 15.068 46.9707 15.0633 46.98 15.054C46.9893 15.0447 47.0033 15.0353 47.022 15.026C47.0593 15.0027 47.0873 14.991 47.106 14.991L47.127 14.998C47.2437 15.054 47.3183 15.1567 47.351 15.306C47.435 15.6607 47.519 15.838 47.603 15.838C47.687 15.838 47.785 15.7493 47.897 15.572C47.953 15.4833 48.009 15.3807 48.065 15.264C48.1257 15.1473 48.1863 15.0167 48.247 14.872C48.2563 14.928 48.2657 14.956 48.275 14.956C48.2983 14.956 48.338 14.8977 48.394 14.781C48.4547 14.6643 48.5503 14.5033 48.681 14.298C48.7557 14.172 48.849 14.0297 48.961 13.871C49.0777 13.7123 49.2013 13.549 49.332 13.381C49.4627 13.213 49.5887 13.0543 49.71 12.905C49.836 12.7557 49.948 12.6273 50.046 12.52C50.144 12.4127 50.2163 12.3427 50.263 12.31C50.4403 12.1887 50.5803 12.072 50.683 11.96C50.6783 11.9927 50.6713 12.023 50.662 12.051C50.6573 12.0743 50.655 12.0907 50.655 12.1C50.655 12.1187 50.6643 12.128 50.683 12.128L50.879 12.03V12.058C50.879 12.0953 50.8883 12.114 50.907 12.114C50.921 12.114 50.949 12.093 50.991 12.051C51.033 12.009 51.0563 11.9787 51.061 11.96L51.047 12.058L51.285 11.918L51.229 12.044C51.3037 11.9927 51.3573 11.967 51.39 11.967C51.4087 11.967 51.4227 11.9787 51.432 12.002C51.4413 12.0207 51.446 12.0393 51.446 12.058C51.446 12.086 51.4343 12.1187 51.411 12.156C51.3877 12.1933 51.3573 12.2377 51.32 12.289C51.292 12.3263 51.2453 12.3823 51.18 12.457C51.1193 12.527 51.026 12.632 50.9 12.772C50.774 12.9073 50.606 13.0963 50.396 13.339C50.34 13.3997 50.2537 13.507 50.137 13.661C50.0203 13.8103 49.8873 13.9853 49.738 14.186C49.5933 14.382 49.4487 14.5803 49.304 14.781C49.1593 14.9817 49.031 15.1637 48.919 15.327C48.807 15.4857 48.7277 15.6047 48.681 15.684L48.247 16.419C48.1537 16.5777 48.0767 16.7083 48.016 16.811C47.9553 16.909 47.9087 16.9767 47.876 17.014C47.806 17.098 47.729 17.1727 47.645 17.238L47.582 17.203L47.526 17.238L47.463 17.308Z" fill="white"/>
</svg>
