<svg width="350" height="350" viewBox="0 0 350 350" fill="none" xmlns="http://www.w3.org/2000/svg">
<g clip-path="url(#clip0_49_285)">
<path d="M43.9382 105.926H105.667L134.062 134.556V245.074H43.9382V105.926Z" fill="#F3EEE7"/>
<path d="M41.4691 165.649V235.223C41.4691 242.024 46.9965 247.537 53.8148 247.537H124.185C131.004 247.537 136.531 242.024 136.531 235.223V165.649" stroke="#7A2D2A" stroke-width="4.9" stroke-linecap="round"/>
<path d="M114.252 105.926H53.8148C48.3601 105.926 43.9383 110.336 43.9383 115.777V170.574C43.9383 171.934 42.8328 173.037 41.4691 173.037C40.1055 173.037 39 171.934 39 170.574V115.777C39 107.616 45.6328 101 53.8148 101H109.314L114.252 105.926ZM139 130.61V170.574C139 171.934 137.894 173.037 136.531 173.037C135.167 173.037 134.062 171.934 134.062 170.574V125.685L139 130.61Z" fill="#7A2D2A"/>
<path d="M139 130.522V134.864H117.395C110.577 134.864 105.049 129.35 105.049 122.55V101H109.401L139 130.522Z" fill="#8D7D6E"/>
<mask id="mask0_49_285" style="mask-type:luminance" maskUnits="userSpaceOnUse" x="105" y="101" width="34" height="34">
<path d="M139 130.522V134.864H117.395C110.577 134.864 105.049 129.35 105.049 122.55V101H109.401L139 130.522Z" fill="white"/>
</mask>
<g mask="url(#mask0_49_285)">
<path d="M139 130.522H143.938V128.482L142.492 127.039L139 130.522ZM139 134.864V139.789H143.938V134.864H139ZM105.049 101V96.0744H100.111V101H105.049ZM109.401 101L112.893 97.517L111.446 96.0744H109.401V101ZM139 130.522H134.062V134.864H139H143.938V130.522H139ZM139 134.864V129.938H117.395V134.864V139.789H139V134.864ZM117.395 134.864V129.938C113.304 129.938 109.988 126.63 109.988 122.55H105.049H100.111C100.111 132.071 107.849 139.789 117.395 139.789V134.864ZM105.049 122.55H109.988V101H105.049H100.111V122.55H105.049ZM105.049 101V105.926H109.401V101V96.0744H105.049V101ZM109.401 101L105.909 104.483L135.508 134.005L139 130.522L142.492 127.039L112.893 97.517L109.401 101Z" fill="#7A2D2A"/>
</g>
</g>
<g clip-path="url(#clip1_49_285)">
<path d="M263.469 33.4793H294.333L308.531 47.8905V103.521H263.469V33.4793Z" fill="#F3EEE7"/>
<path d="M262.235 63.5413V98.562C262.235 101.985 264.998 104.76 268.407 104.76H303.593C307.002 104.76 309.765 101.985 309.765 98.562V63.5413" stroke="#7A2D2A" stroke-width="2.5" stroke-linecap="round"/>
<path d="M298.626 33.4793H268.407C265.68 33.4793 263.469 35.6994 263.469 38.438V66.0207C263.469 66.7053 262.916 67.2603 262.235 67.2603C261.553 67.2603 261 66.7053 261 66.0207V38.438C261 34.3301 264.316 31 268.407 31H296.157L298.626 33.4793ZM311 45.9045V66.0207C311 66.7053 310.447 67.2603 309.765 67.2603C309.084 67.2603 308.531 66.7053 308.531 66.0207V43.4251L311 45.9045Z" fill="#7A2D2A"/>
<path d="M311 45.8603V48.0455H300.197C296.788 48.0455 294.025 45.2704 294.025 41.8471V31H296.201L311 45.8603Z" fill="#8D7D6E"/>
<mask id="mask1_49_285" style="mask-type:luminance" maskUnits="userSpaceOnUse" x="294" y="31" width="17" height="18">
<path d="M311 45.8603V48.0455H300.197C296.788 48.0455 294.025 45.2704 294.025 41.8471V31H296.201L311 45.8603Z" fill="white"/>
</mask>
<g mask="url(#mask1_49_285)">
<path d="M311 45.8603H313.469V44.8333L312.746 44.1071L311 45.8603ZM311 48.0455V50.5248H313.469V48.0455H311ZM294.025 31V28.5207H291.556V31H294.025ZM296.201 31L297.947 29.2469L297.223 28.5207H296.201V31ZM311 45.8603H308.531V48.0455H311H313.469V45.8603H311ZM311 48.0455V45.5661H300.198V48.0455V50.5248H311V48.0455ZM300.198 48.0455V45.5661C298.152 45.5661 296.494 43.9011 296.494 41.8471H294.025H291.556C291.556 46.6397 295.425 50.5248 300.198 50.5248V48.0455ZM294.025 41.8471H296.494V31H294.025H291.556V41.8471H294.025ZM294.025 31V33.4794H296.201V31V28.5207H294.025V31ZM296.201 31L294.455 32.7532L309.254 47.6135L311 45.8603L312.746 44.1071L297.947 29.2469L296.201 31Z" fill="#7A2D2A"/>
</g>
</g>
<g clip-path="url(#clip2_49_285)">
<path d="M263.469 140.479H294.333L308.531 154.89V210.521H263.469V140.479Z" fill="#F3EEE7"/>
<path d="M262.235 170.541V205.562C262.235 208.985 264.998 211.76 268.407 211.76H303.593C307.002 211.76 309.765 208.985 309.765 205.562V170.541" stroke="#7A2D2A" stroke-width="2.5" stroke-linecap="round"/>
<path d="M298.626 140.479H268.407C265.68 140.479 263.469 142.699 263.469 145.438V173.021C263.469 173.705 262.916 174.26 262.235 174.26C261.553 174.26 261 173.705 261 173.021V145.438C261 141.33 264.316 138 268.407 138H296.157L298.626 140.479ZM311 152.904V173.021C311 173.705 310.447 174.26 309.765 174.26C309.084 174.26 308.531 173.705 308.531 173.021V150.425L311 152.904Z" fill="#7A2D2A"/>
<path d="M311 152.86V155.045H300.197C296.788 155.045 294.025 152.27 294.025 148.847V138H296.201L311 152.86Z" fill="#8D7D6E"/>
<mask id="mask2_49_285" style="mask-type:luminance" maskUnits="userSpaceOnUse" x="294" y="138" width="17" height="18">
<path d="M311 152.86V155.045H300.197C296.788 155.045 294.025 152.27 294.025 148.847V138H296.201L311 152.86Z" fill="white"/>
</mask>
<g mask="url(#mask2_49_285)">
<path d="M311 152.86H313.469V151.833L312.746 151.107L311 152.86ZM311 155.045V157.525H313.469V155.045H311ZM294.025 138V135.521H291.556V138H294.025ZM296.201 138L297.947 136.247L297.223 135.521H296.201V138ZM311 152.86H308.531V155.045H311H313.469V152.86H311ZM311 155.045V152.566H300.198V155.045V157.525H311V155.045ZM300.198 155.045V152.566C298.152 152.566 296.494 150.901 296.494 148.847H294.025H291.556C291.556 153.64 295.425 157.525 300.198 157.525V155.045ZM294.025 148.847H296.494V138H294.025H291.556V148.847H294.025ZM294.025 138V140.479H296.201V138V135.521H294.025V138ZM296.201 138L294.455 139.753L309.254 154.613L311 152.86L312.746 151.107L297.947 136.247L296.201 138Z" fill="#7A2D2A"/>
</g>
</g>
<g clip-path="url(#clip3_49_285)">
<path d="M263.469 247.479H294.333L308.531 261.89V317.521H263.469V247.479Z" fill="#F3EEE7"/>
<path d="M262.235 277.541V312.562C262.235 315.985 264.998 318.76 268.407 318.76H303.593C307.002 318.76 309.765 315.985 309.765 312.562V277.541" stroke="#7A2D2A" stroke-width="2.5" stroke-linecap="round"/>
<path d="M298.626 247.479H268.407C265.68 247.479 263.469 249.699 263.469 252.438V280.021C263.469 280.705 262.916 281.26 262.235 281.26C261.553 281.26 261 280.705 261 280.021V252.438C261 248.33 264.316 245 268.407 245H296.157L298.626 247.479ZM311 259.904V280.021C311 280.705 310.447 281.26 309.765 281.26C309.084 281.26 308.531 280.705 308.531 280.021V257.425L311 259.904Z" fill="#7A2D2A"/>
<path d="M311 259.86V262.045H300.197C296.788 262.045 294.025 259.27 294.025 255.847V245H296.201L311 259.86Z" fill="#8D7D6E"/>
<mask id="mask3_49_285" style="mask-type:luminance" maskUnits="userSpaceOnUse" x="294" y="245" width="17" height="18">
<path d="M311 259.86V262.045H300.197C296.788 262.045 294.025 259.27 294.025 255.847V245H296.201L311 259.86Z" fill="white"/>
</mask>
<g mask="url(#mask3_49_285)">
<path d="M311 259.86H313.469V258.833L312.746 258.107L311 259.86ZM311 262.045V264.525H313.469V262.045H311ZM294.025 245V242.521H291.556V245H294.025ZM296.201 245L297.947 243.247L297.223 242.521H296.201V245ZM311 259.86H308.531V262.045H311H313.469V259.86H311ZM311 262.045V259.566H300.198V262.045V264.525H311V262.045ZM300.198 262.045V259.566C298.152 259.566 296.494 257.901 296.494 255.847H294.025H291.556C291.556 260.64 295.425 264.525 300.198 264.525V262.045ZM294.025 255.847H296.494V245H294.025H291.556V255.847H294.025ZM294.025 245V247.479H296.201V245V242.521H294.025V245ZM296.201 245L294.455 246.753L309.254 261.613L311 259.86L312.746 258.107L297.947 243.247L296.201 245Z" fill="#7A2D2A"/>
</g>
</g>
<path d="M150 175H216" stroke="#B56A45" stroke-width="5" stroke-linecap="round" stroke-dasharray="10 10"/>
<path d="M222 88H254" stroke="#B56A45" stroke-width="5" stroke-linecap="round" stroke-dasharray="10 10"/>
<path d="M222 263H254" stroke="#B56A45" stroke-width="5" stroke-linecap="round" stroke-dasharray="10 10"/>
<path d="M229 175H254" stroke="#B56A45" stroke-width="5" stroke-linecap="round" stroke-dasharray="10 10"/>
<path d="M222 263V88" stroke="#B56A45" stroke-width="5" stroke-linecap="round" stroke-dasharray="10 10"/>
<defs>
<clipPath id="clip0_49_285">
<rect width="100" height="149" fill="white" transform="translate(39 101)"/>
</clipPath>
<clipPath id="clip1_49_285">
<rect width="50" height="75" fill="white" transform="translate(261 31)"/>
</clipPath>
<clipPath id="clip2_49_285">
<rect width="50" height="75" fill="white" transform="translate(261 138)"/>
</clipPath>
<clipPath id="clip3_49_285">
<rect width="50" height="75" fill="white" transform="translate(261 245)"/>
</clipPath>
</defs>
</svg>
