<svg width="350" height="350" viewBox="0 0 350 350" fill="none" xmlns="http://www.w3.org/2000/svg">
<g clip-path="url(#clip0_49_285)">
<path d="M26.9382 105.926H88.6666L117.062 134.556V245.074H26.9382V105.926Z" fill="#F3EEE7"/>
<path d="M24.4691 165.649V235.223C24.4691 242.024 29.9965 247.537 36.8148 247.537H107.185C114.004 247.537 119.531 242.024 119.531 235.223V165.649" stroke="#7A2D2A" stroke-width="4.9" stroke-linecap="round"/>
<path d="M97.2518 105.926H36.8148C31.3601 105.926 26.9383 110.336 26.9383 115.777V170.574C26.9383 171.934 25.8328 173.037 24.4691 173.037C23.1055 173.037 22 171.934 22 170.574V115.777C22 107.616 28.6328 101 36.8148 101H92.3136L97.2518 105.926ZM122 130.61V170.574C122 171.934 120.894 173.037 119.531 173.037C118.167 173.037 117.062 171.934 117.062 170.574V125.685L122 130.61Z" fill="#7A2D2A"/>
<path d="M122 130.522V134.864H100.395C93.5766 134.864 88.0494 129.35 88.0494 122.55V101H92.4013L122 130.522Z" fill="#8D7D6E"/>
<mask id="mask0_49_285" style="mask-type:luminance" maskUnits="userSpaceOnUse" x="88" y="101" width="34" height="34">
<path d="M122 130.522V134.864H100.395C93.5766 134.864 88.0494 129.35 88.0494 122.55V101H92.4013L122 130.522Z" fill="white"/>
</mask>
<g mask="url(#mask0_49_285)">
<path d="M122 130.522H126.938V128.482L125.492 127.039L122 130.522ZM122 134.864V139.789H126.938V134.864H122ZM88.0495 101V96.0744H83.1112V101H88.0495ZM92.4013 101L95.8933 97.517L94.4464 96.0744H92.4013V101ZM122 130.522H117.062V134.864H122H126.938V130.522H122ZM122 134.864V129.938H100.395V134.864V139.789H122V134.864ZM100.395 134.864V129.938C96.3044 129.938 92.9878 126.63 92.9878 122.55H88.0495H83.1112C83.1112 132.071 90.8495 139.789 100.395 139.789V134.864ZM88.0495 122.55H92.9878V101H88.0495H83.1112V122.55H88.0495ZM88.0495 101V105.926H92.4013V101V96.0744H88.0495V101ZM92.4013 101L88.9094 104.483L118.508 134.005L122 130.522L125.492 127.039L95.8933 97.517L92.4013 101Z" fill="#7A2D2A"/>
</g>
</g>
<g clip-path="url(#clip1_49_285)">
<path d="M231.938 105.926H293.667L322.062 134.556V245.074H231.938V105.926Z" fill="#F3EEE7"/>
<path d="M229.469 165.649V235.223C229.469 242.024 234.996 247.537 241.815 247.537H312.185C319.004 247.537 324.531 242.024 324.531 235.223V165.649" stroke="#7A2D2A" stroke-width="4.9" stroke-linecap="round"/>
<path d="M302.252 105.926H241.815C236.36 105.926 231.938 110.336 231.938 115.777V170.574C231.938 171.934 230.833 173.037 229.469 173.037C228.105 173.037 227 171.934 227 170.574V115.777C227 107.616 233.633 101 241.815 101H297.314L302.252 105.926ZM327 130.61V170.574C327 171.934 325.894 173.037 324.531 173.037C323.167 173.037 322.062 171.934 322.062 170.574V125.685L327 130.61Z" fill="#7A2D2A"/>
<path d="M327 130.522V134.864H305.395C298.577 134.864 293.049 129.35 293.049 122.55V101H297.401L327 130.522Z" fill="#8D7D6E"/>
<mask id="mask1_49_285" style="mask-type:luminance" maskUnits="userSpaceOnUse" x="293" y="101" width="34" height="34">
<path d="M327 130.522V134.864H305.395C298.577 134.864 293.049 129.35 293.049 122.55V101H297.401L327 130.522Z" fill="white"/>
</mask>
<g mask="url(#mask1_49_285)">
<path d="M327 130.522H331.938V128.482L330.492 127.039L327 130.522ZM327 134.864V139.789H331.938V134.864H327ZM293.049 101V96.0744H288.111V101H293.049ZM297.401 101L300.893 97.517L299.446 96.0744H297.401V101ZM327 130.522H322.062V134.864H327H331.938V130.522H327ZM327 134.864V129.938H305.395V134.864V139.789H327V134.864ZM305.395 134.864V129.938C301.304 129.938 297.988 126.63 297.988 122.55H293.049H288.111C288.111 132.071 295.849 139.789 305.395 139.789V134.864ZM293.049 122.55H297.988V101H293.049H288.111V122.55H293.049ZM293.049 101V105.926H297.401V101V96.0744H293.049V101ZM297.401 101L293.909 104.483L323.508 134.005L327 130.522L330.492 127.039L300.893 97.517L297.401 101Z" fill="#7A2D2A"/>
</g>
</g>
<path d="M133 175H216" stroke="#B56A45" stroke-width="5" stroke-linecap="round" stroke-dasharray="10 10"/>
<defs>
<clipPath id="clip0_49_285">
<rect width="100" height="149" fill="white" transform="translate(22 101)"/>
</clipPath>
<clipPath id="clip1_49_285">
<rect width="100" height="149" fill="white" transform="translate(227 101)"/>
</clipPath>
</defs>
</svg>
