<svg width="72" height="72" viewBox="0 0 72 72" fill="none" xmlns="http://www.w3.org/2000/svg">
<path d="M18.3086 15.4285H38.88L48.3429 24.9942V61.92H18.3086V15.4285Z" fill="#F3EEE7"/>
<path d="M17.4857 35.3828V58.6285C17.4857 60.9008 19.3278 62.7428 21.6 62.7428H45.0515C47.3237 62.7428 49.1657 60.9008 49.1657 58.6285V35.3828" stroke="#7A2D2A" stroke-width="1.64571" stroke-linecap="round"/>
<path d="M41.742 15.4293H21.6004C19.7826 15.4293 18.3094 16.9026 18.3094 18.7203V37.0289C18.3091 37.4831 17.9403 37.852 17.4861 37.8522C17.0318 37.8522 16.6631 37.4832 16.6629 37.0289V18.7203C16.6629 15.9937 18.8737 13.7829 21.6004 13.7828H40.0955L41.742 15.4293ZM49.989 23.6764V37.0289C49.9888 37.4831 49.62 37.852 49.1658 37.8522C48.7116 37.852 48.3437 37.4831 48.3435 37.0289V22.0309L49.989 23.6764Z" fill="#7A2D2A"/>
<mask id="path-4-inside-1_51_561" fill="white">
<path d="M49.9888 23.6461V25.0973H42.7886C40.5164 25.0973 38.6744 23.2552 38.6743 20.983V13.7828H40.1255L49.9888 23.6461Z"/>
</mask>
<path d="M49.9888 23.6461V25.0973H42.7886C40.5164 25.0973 38.6744 23.2552 38.6743 20.983V13.7828H40.1255L49.9888 23.6461Z" fill="#8D7D6E"/>
<path d="M49.9888 23.6461H51.6345V22.9644L51.1525 22.4824L49.9888 23.6461ZM49.9888 25.0973V26.743H51.6345V25.0973H49.9888ZM42.7886 25.0973L42.7886 26.743H42.7886V25.0973ZM38.6743 20.983H37.0286V20.9831L38.6743 20.983ZM38.6743 13.7828V12.1371H37.0286V13.7828H38.6743ZM40.1255 13.7828L41.2892 12.6191L40.8072 12.1371H40.1255V13.7828ZM49.9888 23.6461H48.3431V25.0973H49.9888H51.6345V23.6461H49.9888ZM49.9888 25.0973V23.4516H42.7886V25.0973V26.743H49.9888V25.0973ZM42.7886 25.0973L42.7886 23.4516C41.4254 23.4516 40.3201 22.3463 40.32 20.983L38.6743 20.983L37.0286 20.9831C37.0287 24.164 39.6074 26.743 42.7886 26.743L42.7886 25.0973ZM38.6743 20.983H40.32V13.7828H38.6743H37.0286V20.983H38.6743ZM38.6743 13.7828V15.4286H40.1255V13.7828V12.1371H38.6743V13.7828ZM40.1255 13.7828L38.9618 14.9465L48.8251 24.8098L49.9888 23.6461L51.1525 22.4824L41.2892 12.6191L40.1255 13.7828Z" fill="#7A2D2A" mask="url(#path-4-inside-1_51_561)"/>
<circle cx="49.1657" cy="15.4285" r="5.76" fill="#7A2D2A" stroke="white" stroke-width="0.411429"/>
<path d="M48.2019 17.4253C48.2019 17.3629 48.1899 17.3317 48.1659 17.3317L48.0003 17.4109C48.0003 17.3773 47.9811 17.3533 47.9427 17.3389L47.8851 17.3317C47.8467 17.3317 47.7987 17.3485 47.7411 17.3821C47.7315 17.3581 47.7195 17.3341 47.7051 17.3101C47.6907 17.2861 47.6787 17.2645 47.6691 17.2453C47.6067 17.1253 47.5443 16.9933 47.4819 16.8493C47.4243 16.7005 47.3691 16.5589 47.3163 16.4245C47.2683 16.2901 47.2299 16.1845 47.2011 16.1077C47.1819 16.0453 47.1603 15.9517 47.1363 15.8269C47.1123 15.7021 47.0883 15.5437 47.0643 15.3517C47.1171 15.3853 47.1579 15.4021 47.1867 15.4021C47.2203 15.4021 47.2515 15.3517 47.2803 15.2509C47.2947 15.2701 47.3211 15.2797 47.3595 15.2797C47.3883 15.2797 47.4099 15.2701 47.4243 15.2509L47.5395 15.0781L47.6691 15.1213H47.6763C47.6859 15.1213 47.6955 15.1165 47.7051 15.1069C47.7147 15.0973 47.7291 15.0877 47.7483 15.0781C47.7867 15.0541 47.8155 15.0421 47.8347 15.0421L47.8563 15.0493C47.9763 15.1069 48.0531 15.2125 48.0867 15.3661C48.1731 15.7309 48.2595 15.9133 48.3459 15.9133C48.4323 15.9133 48.5331 15.8221 48.6483 15.6397C48.7059 15.5485 48.7635 15.4429 48.8211 15.3229C48.8835 15.2029 48.9459 15.0685 49.0083 14.9197C49.0179 14.9773 49.0275 15.0061 49.0371 15.0061C49.0611 15.0061 49.1019 14.9461 49.1595 14.8261C49.2219 14.7061 49.3203 14.5405 49.4547 14.3293C49.5315 14.1997 49.6275 14.0533 49.7427 13.8901C49.8627 13.7269 49.9899 13.5589 50.1243 13.3861C50.2587 13.2133 50.3883 13.0501 50.5131 12.8965C50.6427 12.7429 50.7579 12.6109 50.8587 12.5005C50.9595 12.3901 51.0339 12.3181 51.0819 12.2845C51.2643 12.1597 51.4083 12.0397 51.5139 11.9245C51.5091 11.9581 51.5019 11.9893 51.4923 12.0181C51.4875 12.0421 51.4851 12.0589 51.4851 12.0685C51.4851 12.0877 51.4947 12.0973 51.5139 12.0973L51.7155 11.9965V12.0253C51.7155 12.0637 51.7251 12.0829 51.7443 12.0829C51.7587 12.0829 51.7875 12.0613 51.8307 12.0181C51.8739 11.9749 51.8979 11.9437 51.9027 11.9245L51.8883 12.0253L52.1331 11.8813L52.0755 12.0109C52.1523 11.9581 52.2075 11.9317 52.2411 11.9317C52.2603 11.9317 52.2747 11.9437 52.2843 11.9677C52.2939 11.9869 52.2987 12.0061 52.2987 12.0253C52.2987 12.0541 52.2867 12.0877 52.2627 12.1261C52.2387 12.1645 52.2075 12.2101 52.1691 12.2629C52.1403 12.3013 52.0923 12.3589 52.0251 12.4357C51.9627 12.5077 51.8667 12.6157 51.7371 12.7597C51.6075 12.8989 51.4347 13.0933 51.2187 13.3429C51.1611 13.4053 51.0723 13.5157 50.9523 13.6741C50.8323 13.8277 50.6955 14.0077 50.5419 14.2141C50.3931 14.4157 50.2443 14.6197 50.0955 14.8261C49.9467 15.0325 49.8147 15.2197 49.6995 15.3877C49.5843 15.5509 49.5027 15.6733 49.4547 15.7549L49.0083 16.5109C48.9123 16.6741 48.8331 16.8085 48.7707 16.9141C48.7083 17.0149 48.6603 17.0845 48.6267 17.1229C48.5547 17.2093 48.4755 17.2861 48.3891 17.3533L48.3243 17.3173L48.2667 17.3533L48.2019 17.4253Z" fill="white"/>
</svg>
