<svg width="72" height="72" viewBox="0 0 72 72" fill="none" xmlns="http://www.w3.org/2000/svg">
<g clip-path="url(#clip0_51_605)">
<path d="M9.03876 21.7905H21.7372L27.5784 27.6801V50.4154H9.03876V21.7905Z" fill="#F3EEE7"/>
<path d="M8.53076 34.0764V48.3889C8.53076 49.7879 9.66782 50.922 11.0704 50.922H25.5466C26.9493 50.922 28.0863 49.7879 28.0863 48.3889V34.0764" stroke="#7A2D2A" stroke-width="1.008" stroke-linecap="round"/>
<path d="M23.5032 21.7904H11.0704C9.94834 21.7904 9.0387 22.6977 9.0387 23.817V35.0896C9.0387 35.3694 8.81129 35.5962 8.53076 35.5962C8.25024 35.5962 8.02283 35.3694 8.02283 35.0896V23.817C8.02283 22.1381 9.3873 20.7772 11.0704 20.7772H22.4873L23.5032 21.7904ZM28.5943 26.8684V35.0896C28.5943 35.3694 28.3668 35.5962 28.0863 35.5962C27.8058 35.5962 27.5784 35.3694 27.5784 35.0896V25.8551L28.5943 26.8684Z" fill="#7A2D2A"/>
<path d="M28.5943 26.8504V27.7435H24.1499C22.7472 27.7435 21.6102 26.6093 21.6102 25.2103V20.7772H22.5054L28.5943 26.8504Z" fill="#8D7D6E"/>
<mask id="mask0_51_605" style="mask-type:luminance" maskUnits="userSpaceOnUse" x="21" y="20" width="8" height="8">
<path d="M28.5943 26.8504V27.7435H24.1499C22.7472 27.7435 21.6102 26.6093 21.6102 25.2103V20.7772H22.5054L28.5943 26.8504Z" fill="white"/>
</mask>
<g mask="url(#mask0_51_605)">
<path d="M28.5943 26.8504H29.6102V26.4307L29.3126 26.1339L28.5943 26.8504ZM28.5943 27.7435V28.7568H29.6102V27.7435H28.5943ZM21.6102 20.7772V19.764H20.5943V20.7772H21.6102ZM22.5054 20.7772L23.2238 20.0607L22.9261 19.764H22.5054V20.7772ZM28.5943 26.8504H27.5784V27.7435H28.5943H29.6102V26.8504H28.5943ZM28.5943 27.7435V26.7302H24.1499V27.7435V28.7568H28.5943V27.7435ZM24.1499 27.7435V26.7302C23.3083 26.7302 22.626 26.0497 22.626 25.2103H21.6102H20.5943C20.5943 27.169 22.1862 28.7568 24.1499 28.7568V27.7435ZM21.6102 25.2103H22.626V20.7772H21.6102H20.5943V25.2103H21.6102ZM21.6102 20.7772V21.7905H22.5054V20.7772V19.764H21.6102V20.7772ZM22.5054 20.7772L21.7871 21.4937L27.876 27.5669L28.5943 26.8504L29.3126 26.1339L23.2238 20.0607L22.5054 20.7772Z" fill="#7A2D2A"/>
</g>
</g>
<g clip-path="url(#clip1_51_605)">
<path d="M54.1993 6.88715H60.5485L63.4692 9.85173V21.2956H54.1993V6.88715Z" fill="#F3EEE7"/>
<path d="M53.9454 13.0713V20.2755C53.9454 20.9798 54.5139 21.5506 55.2152 21.5506H62.4533C63.1546 21.5506 63.7232 20.9798 63.7232 20.2755V13.0713" stroke="#7A2D2A" stroke-width="0.514286" stroke-linecap="round"/>
<path d="M61.4316 6.88717H55.2152C54.6542 6.88717 54.1993 7.34387 54.1993 7.90724V13.5814C54.1993 13.7222 54.0856 13.8364 53.9454 13.8364C53.8051 13.8364 53.6914 13.7222 53.6914 13.5814V7.90724C53.6914 7.06219 54.3736 6.37714 55.2152 6.37714H60.9237L61.4316 6.88717ZM63.9771 9.4432V13.5814C63.9771 13.7222 63.8634 13.8364 63.7232 13.8364C63.5829 13.8364 63.4692 13.7222 63.4692 13.5814V8.93317L63.9771 9.4432Z" fill="#7A2D2A"/>
<path d="M63.9772 9.43405V9.88357H61.7549C61.0536 9.88357 60.4851 9.31269 60.4851 8.60848V6.37708H60.9327L63.9772 9.43405Z" fill="#8D7D6E"/>
<mask id="mask1_51_605" style="mask-type:luminance" maskUnits="userSpaceOnUse" x="60" y="6" width="4" height="4">
<path d="M63.9772 9.43405V9.88357H61.7549C61.0536 9.88357 60.4851 9.31269 60.4851 8.60848V6.37708H60.9327L63.9772 9.43405Z" fill="white"/>
</mask>
<g mask="url(#mask1_51_605)">
<path d="M63.9772 9.43401H64.4851V9.22275L64.3363 9.07336L63.9772 9.43401ZM63.9772 9.88353V10.3936H64.4851V9.88353H63.9772ZM60.4851 6.37704V5.867H59.9772V6.37704H60.4851ZM60.9327 6.37704L61.2919 6.01639L61.1431 5.867H60.9327V6.37704ZM63.9772 9.43401H63.4692V9.88353H63.9772H64.4851V9.43401H63.9772ZM63.9772 9.88353V9.3735H61.755V9.88353V10.3936H63.9772V9.88353ZM61.755 9.88353V9.3735C61.3342 9.3735 60.993 9.03097 60.993 8.60844H60.4851H59.9772C59.9772 9.59434 60.7731 10.3936 61.755 10.3936V9.88353ZM60.4851 8.60844H60.993V6.37704H60.4851H59.9772V8.60844H60.4851ZM60.4851 6.37704V6.88708H60.9327V6.37704V5.867H60.4851V6.37704ZM60.9327 6.37704L60.5736 6.73769L63.618 9.79467L63.9772 9.43401L64.3363 9.07336L61.2919 6.01639L60.9327 6.37704Z" fill="#7A2D2A"/>
</g>
</g>
<g clip-path="url(#clip2_51_605)">
<path d="M54.1993 28.8986H60.5485L63.4692 31.8632V43.3071H54.1993V28.8986Z" fill="#F3EEE7"/>
<path d="M53.9454 35.0828V42.287C53.9454 42.9912 54.5139 43.5621 55.2152 43.5621H62.4533C63.1546 43.5621 63.7232 42.9912 63.7232 42.287V35.0828" stroke="#7A2D2A" stroke-width="0.514286" stroke-linecap="round"/>
<path d="M61.4316 28.8986H55.2152C54.6542 28.8986 54.1993 29.3553 54.1993 29.9187V35.5928C54.1993 35.7336 54.0856 35.8478 53.9454 35.8478C53.8051 35.8478 53.6914 35.7336 53.6914 35.5928V29.9187C53.6914 29.0736 54.3736 28.3885 55.2152 28.3885H60.9237L61.4316 28.8986ZM63.9771 31.4546V35.5928C63.9771 35.7336 63.8634 35.8478 63.7232 35.8478C63.5829 35.8478 63.4692 35.7336 63.4692 35.5928V30.9446L63.9771 31.4546Z" fill="#7A2D2A"/>
<path d="M63.9772 31.4455V31.895H61.7549C61.0536 31.895 60.4851 31.3242 60.4851 30.62V28.3885H60.9327L63.9772 31.4455Z" fill="#8D7D6E"/>
<mask id="mask2_51_605" style="mask-type:luminance" maskUnits="userSpaceOnUse" x="60" y="28" width="4" height="4">
<path d="M63.9772 31.4455V31.895H61.7549C61.0536 31.895 60.4851 31.3242 60.4851 30.62V28.3885H60.9327L63.9772 31.4455Z" fill="white"/>
</mask>
<g mask="url(#mask2_51_605)">
<path d="M63.9772 31.4455H64.4851V31.2343L64.3363 31.0849L63.9772 31.4455ZM63.9772 31.8951V32.4051H64.4851V31.8951H63.9772ZM60.4851 28.3886V27.8785H59.9772V28.3886H60.4851ZM60.9327 28.3886L61.2919 28.0279L61.1431 27.8785H60.9327V28.3886ZM63.9772 31.4455H63.4692V31.8951H63.9772H64.4851V31.4455H63.9772ZM63.9772 31.8951V31.385H61.755V31.8951V32.4051H63.9772V31.8951ZM61.755 31.8951V31.385C61.3342 31.385 60.993 31.0425 60.993 30.62H60.4851H59.9772C59.9772 31.6059 60.7731 32.4051 61.755 32.4051V31.8951ZM60.4851 30.62H60.993V28.3886H60.4851H59.9772V30.62H60.4851ZM60.4851 28.3886V28.8986H60.9327V28.3886V27.8785H60.4851V28.3886ZM60.9327 28.3886L60.5736 28.7492L63.618 31.8062L63.9772 31.4455L64.3363 31.0849L61.2919 28.0279L60.9327 28.3886Z" fill="#7A2D2A"/>
</g>
</g>
<g clip-path="url(#clip3_51_605)">
<path d="M54.1993 50.91H60.5485L63.4692 53.8746V65.3185H54.1993V50.91Z" fill="#F3EEE7"/>
<path d="M53.9454 57.0942V64.2985C53.9454 65.0027 54.5139 65.5736 55.2152 65.5736H62.4533C63.1546 65.5736 63.7232 65.0027 63.7232 64.2985V57.0942" stroke="#7A2D2A" stroke-width="0.514286" stroke-linecap="round"/>
<path d="M61.4316 50.9101H55.2152C54.6542 50.9101 54.1993 51.3668 54.1993 51.9301V57.6043C54.1993 57.7451 54.0856 57.8593 53.9454 57.8593C53.8051 57.8593 53.6914 57.7451 53.6914 57.6043V51.9301C53.6914 51.0851 54.3736 50.4 55.2152 50.4H60.9237L61.4316 50.9101ZM63.9771 53.4661V57.6043C63.9771 57.7451 63.8634 57.8593 63.7232 57.8593C63.5829 57.8593 63.4692 57.7451 63.4692 57.6043V52.9561L63.9771 53.4661Z" fill="#7A2D2A"/>
<path d="M63.9772 53.457V53.9065H61.7549C61.0536 53.9065 60.4851 53.3356 60.4851 52.6314V50.4H60.9327L63.9772 53.457Z" fill="#8D7D6E"/>
<mask id="mask3_51_605" style="mask-type:luminance" maskUnits="userSpaceOnUse" x="60" y="50" width="4" height="4">
<path d="M63.9772 53.457V53.9065H61.7549C61.0536 53.9065 60.4851 53.3356 60.4851 52.6314V50.4H60.9327L63.9772 53.457Z" fill="white"/>
</mask>
<g mask="url(#mask3_51_605)">
<path d="M63.9772 53.457H64.4851V53.2457L64.3363 53.0963L63.9772 53.457ZM63.9772 53.9065V54.4165H64.4851V53.9065H63.9772ZM60.4851 50.4V49.89H59.9772V50.4H60.4851ZM60.9327 50.4L61.2919 50.0393L61.1431 49.89H60.9327V50.4ZM63.9772 53.457H63.4692V53.9065H63.9772H64.4851V53.457H63.9772ZM63.9772 53.9065V53.3964H61.755V53.9065V54.4165H63.9772V53.9065ZM61.755 53.9065V53.3964C61.3342 53.3964 60.993 53.0539 60.993 52.6314H60.4851H59.9772C59.9772 53.6173 60.7731 54.4165 61.755 54.4165V53.9065ZM60.4851 52.6314H60.993V50.4H60.4851H59.9772V52.6314H60.4851ZM60.4851 50.4V50.91H60.9327V50.4V49.89H60.4851V50.4ZM60.9327 50.4L60.5736 50.7606L63.618 53.8176L63.9772 53.457L64.3363 53.0963L61.2919 50.0393L60.9327 50.4Z" fill="#7A2D2A"/>
</g>
</g>
<path d="M30.8571 36H44.4343" stroke="#B56A45" stroke-width="1.02857" stroke-linecap="round" stroke-dasharray="2.06 2.06"/>
<path d="M45.6686 18.1028H52.2514" stroke="#B56A45" stroke-width="1.02857" stroke-linecap="round" stroke-dasharray="2.06 2.06"/>
<path d="M45.6686 54.1028H52.2514" stroke="#B56A45" stroke-width="1.02857" stroke-linecap="round" stroke-dasharray="2.06 2.06"/>
<path d="M47.1086 36H52.2514" stroke="#B56A45" stroke-width="1.02857" stroke-linecap="round" stroke-dasharray="2.06 2.06"/>
<path d="M45.6686 54.1028V18.1028" stroke="#B56A45" stroke-width="1.02857" stroke-linecap="round" stroke-dasharray="2.06 2.06"/>
<defs>
<clipPath id="clip0_51_605">
<rect width="20.5714" height="30.6514" fill="white" transform="translate(8.02283 20.7772)"/>
</clipPath>
<clipPath id="clip1_51_605">
<rect width="10.2857" height="15.4286" fill="white" transform="translate(53.6914 6.37714)"/>
</clipPath>
<clipPath id="clip2_51_605">
<rect width="10.2857" height="15.4286" fill="white" transform="translate(53.6914 28.3885)"/>
</clipPath>
<clipPath id="clip3_51_605">
<rect width="10.2857" height="15.4286" fill="white" transform="translate(53.6914 50.4)"/>
</clipPath>
</defs>
</svg>
