<svg width="350" height="350" viewBox="0 0 350 350" fill="none" xmlns="http://www.w3.org/2000/svg">
<path d="M102 64H202L248 110.5V290H102V64Z" fill="#F3EEE7"/>
<path d="M98 205.5V274C98 285.046 106.954 294 118 294H232C243.046 294 252 285.046 252 274V205.5" stroke="#7A2D2A" stroke-width="8" stroke-linecap="round"/>
<path d="M215.908 64H118C109.163 64 102 71.1634 102 80V169C102 171.209 100.209 173 98 173C95.7909 173 94 171.209 94 169V80C94 66.7452 104.745 56 118 56H207.908L215.908 64ZM256 104.092V169C256 171.209 254.209 173 252 173C249.791 173 248 171.209 248 169V96.0918L256 104.092Z" fill="#7A2D2A"/>
<mask id="path-4-inside-1_48_190" fill="white">
<path d="M256 103.949V111H221C209.954 111 201 102.046 201 91V56H208.05L256 103.949Z"/>
</mask>
<path d="M256 103.949V111H221C209.954 111 201 102.046 201 91V56H208.05L256 103.949Z" fill="#8D7D6E"/>
<path d="M256 103.949H264V100.635L261.657 98.2923L256 103.949ZM256 111V119H264V111H256ZM221 111V119V119V111ZM201 91H193V91H201ZM201 56V48H193V56H201ZM208.05 56L213.707 50.3431L211.363 48H208.05V56ZM256 103.949H248V111H256H264V103.949H256ZM256 111V103H221V111V119H256V111ZM221 111V103C214.373 103 209 97.6274 209 91H201H193C193 106.464 205.536 119 221 119V111ZM201 91H209V56H201H193V91H201ZM201 56V64H208.05V56V48H201V56ZM208.05 56L202.393 61.6569L250.343 109.606L256 103.949L261.657 98.2923L213.707 50.3431L208.05 56Z" fill="#7A2D2A" mask="url(#path-4-inside-1_48_190)"/>
<path d="M61 187L288 187" stroke="#7A2D2A" stroke-width="8" stroke-linecap="round" stroke-dasharray="16 16"/>
<path d="M177.5 205C177.5 203.619 176.381 202.5 175 202.5C173.619 202.5 172.5 203.619 172.5 205H175H177.5ZM175 250L189.434 225H160.566L175 250ZM175 205H172.5V227.5H175H177.5V205H175Z" fill="#B56A45"/>
<path d="M172.5 168C172.5 169.381 173.619 170.5 175 170.5C176.381 170.5 177.5 169.381 177.5 168H175H172.5ZM175 123L160.566 148H189.434L175 123ZM175 168H177.5V145.5H175H172.5V168H175Z" fill="#B56A45"/>
</svg>
